<mxfile host="65bd71144e" pages="2">
    <diagram name="Sequence" id="JgcEw9M8dI1Xy2gp9OZx">
        <mxGraphModel dx="1164" dy="867" grid="1" gridSize="10" guides="1" tooltips="1" connect="1" arrows="1" fold="1" page="1" pageScale="1" pageWidth="850" pageHeight="1100" math="0" shadow="0">
            <root>
                <mxCell id="UR0DFZb04nUeP79YXbAC-0"/>
                <mxCell id="UR0DFZb04nUeP79YXbAC-1" parent="UR0DFZb04nUeP79YXbAC-0"/>
                <mxCell id="UR0DFZb04nUeP79YXbAC-8" value="if (!fingerprint ) =&amp;gt; error" style="html=1;verticalAlign=bottom;endArrow=open;dashed=1;endSize=8;" parent="UR0DFZb04nUeP79YXbAC-1" target="jlnA7Bbo42E9i6tjMMHw-4" edge="1">
                    <mxGeometry relative="1" as="geometry">
                        <mxPoint x="740.5" y="560" as="sourcePoint"/>
                        <mxPoint x="170" y="560" as="targetPoint"/>
                    </mxGeometry>
                </mxCell>
                <mxCell id="jlnA7Bbo42E9i6tjMMHw-2" value="Server" style="shape=umlLifeline;perimeter=lifelinePerimeter;whiteSpace=wrap;html=1;container=1;collapsible=0;recursiveResize=0;outlineConnect=0;lifelineDashed=0;" vertex="1" parent="UR0DFZb04nUeP79YXbAC-1">
                    <mxGeometry x="370" y="280" width="100" height="300" as="geometry"/>
                </mxCell>
                <mxCell id="jlnA7Bbo42E9i6tjMMHw-4" value="Alice" style="shape=umlLifeline;perimeter=lifelinePerimeter;whiteSpace=wrap;html=1;container=1;collapsible=0;recursiveResize=0;outlineConnect=0;lifelineDashed=0;" vertex="1" parent="UR0DFZb04nUeP79YXbAC-1">
                    <mxGeometry x="50" y="280" width="100" height="300" as="geometry"/>
                </mxCell>
                <mxCell id="jlnA7Bbo42E9i6tjMMHw-5" value="Bob" style="shape=umlLifeline;perimeter=lifelinePerimeter;whiteSpace=wrap;html=1;container=1;collapsible=0;recursiveResize=0;outlineConnect=0;lifelineDashed=0;" vertex="1" parent="UR0DFZb04nUeP79YXbAC-1">
                    <mxGeometry x="690" y="280" width="100" height="300" as="geometry"/>
                </mxCell>
                <mxCell id="jlnA7Bbo42E9i6tjMMHw-13" value="AES(message)" style="html=1;verticalAlign=bottom;startArrow=circle;startFill=1;endArrow=open;startSize=6;endSize=8;" edge="1" parent="UR0DFZb04nUeP79YXbAC-1" target="jlnA7Bbo42E9i6tjMMHw-5">
                    <mxGeometry x="-0.0288" width="80" relative="1" as="geometry">
                        <mxPoint x="90" y="360" as="sourcePoint"/>
                        <mxPoint x="419.5" y="360" as="targetPoint"/>
                        <mxPoint as="offset"/>
                    </mxGeometry>
                </mxCell>
                <mxCell id="jlnA7Bbo42E9i6tjMMHw-14" value="RSA(session_key)" style="html=1;verticalAlign=bottom;endArrow=block;" edge="1" parent="UR0DFZb04nUeP79YXbAC-1" target="jlnA7Bbo42E9i6tjMMHw-5">
                    <mxGeometry x="-0.0305" width="80" relative="1" as="geometry">
                        <mxPoint x="100" y="400" as="sourcePoint"/>
                        <mxPoint x="670" y="400" as="targetPoint"/>
                        <mxPoint as="offset"/>
                    </mxGeometry>
                </mxCell>
                <mxCell id="jlnA7Bbo42E9i6tjMMHw-15" value="RSA(hash)" style="html=1;verticalAlign=bottom;endArrow=block;" edge="1" parent="UR0DFZb04nUeP79YXbAC-1">
                    <mxGeometry width="80" relative="1" as="geometry">
                        <mxPoint x="100" y="440" as="sourcePoint"/>
                        <mxPoint x="420" y="440" as="targetPoint"/>
                    </mxGeometry>
                </mxCell>
                <mxCell id="jlnA7Bbo42E9i6tjMMHw-16" value="hash?" style="html=1;verticalAlign=bottom;endArrow=block;" edge="1" parent="UR0DFZb04nUeP79YXbAC-1" source="jlnA7Bbo42E9i6tjMMHw-5">
                    <mxGeometry x="-0.0016" width="80" relative="1" as="geometry">
                        <mxPoint x="690" y="480" as="sourcePoint"/>
                        <mxPoint x="420" y="480" as="targetPoint"/>
                        <mxPoint as="offset"/>
                    </mxGeometry>
                </mxCell>
                <mxCell id="jlnA7Bbo42E9i6tjMMHw-17" value="RSA(hash)" style="html=1;verticalAlign=bottom;endArrow=block;" edge="1" parent="UR0DFZb04nUeP79YXbAC-1">
                    <mxGeometry width="80" relative="1" as="geometry">
                        <mxPoint x="420" y="520" as="sourcePoint"/>
                        <mxPoint x="740" y="520" as="targetPoint"/>
                    </mxGeometry>
                </mxCell>
            </root>
        </mxGraphModel>
    </diagram>
</mxfile>